<svg width="175" height="44" viewBox="0 0 175 44" fill="none" xmlns="http://www.w3.org/2000/svg">
<path d="M19.3486 7.62008L22.3254 5.65356V43.9999H19.3486V7.62008Z" fill="#FBE25D"/>
<path d="M23.3184 4.9162L26.2951 2.94971V44H23.3184V4.9162Z" fill="#FBE25D"/>
<path d="M27.2871 2.3418L30.2639 0.245789V43.9999H27.2871V2.3418Z" fill="#FBE25D"/>
<path d="M31.2559 0L34.2326 2.0894V44H31.2559V0Z" fill="#FBE25D"/>
<path d="M35.2246 2.70386L38.2014 4.91616V43.9999H35.2246V2.70386Z" fill="#FBE25D"/>
<path d="M39.1943 5.53076L42.1711 7.62014V44H39.1943V5.53076Z" fill="#FBE25D"/>
<path d="M44.1553 40.9784L58.7327 38.838L64.0002 40.9784V44H44.1553V40.9784Z" fill="#FBE25D"/>
<path d="M44.1553 35.8236L58.8552 32.2011L64.0002 35.8236V39.0838L58.8552 36.3799L44.1553 39.0838V35.8236Z" fill="#FBE25D"/>
<path d="M44.1553 30.7263L58.6102 25.8101L64.0002 30.7263V33.676L58.6102 29.3743L44.1553 33.676V30.7263Z" fill="#FBE25D"/>
<path d="M44.1553 25.5642L58.6102 18.9274L64.0002 25.5642V28.514L58.6102 23.229L44.1553 28.514V25.5642Z" fill="#FBE25D"/>
<path d="M44.1553 20.4022L58.6102 12.7821L64.0002 20.4022V23.3519L58.6102 16.2234L44.1553 23.3519V20.4022Z" fill="#FBE25D"/>
<path d="M0 41.0503L5.95349 39.4525L17.3643 41.0503V44H5.95349H0V41.0503Z" fill="#FBE25D"/>
<path d="M0 27.0391L5.95349 22.6145L17.3643 27.6536V30.6033L5.95349 26.3016L0 29.9888V27.0391Z" fill="#FBE25D"/>
<path d="M0 31.7095L5.95349 28.2682L17.3643 31.9553V34.9051L5.95349 31.9553L0 34.6592V31.7095Z" fill="#FBE25D"/>
<path d="M0 36.3799L5.95349 33.9218L17.3643 36.3799V39.0838L5.95349 36.8715L0 39.0838V36.3799Z" fill="#FBE25D"/>
<path d="M85 30.436V32.47H79.762V35.692H83.776V37.69H79.762V43H77.242V30.436H85ZM89.4509 30.436V38.212C89.4509 39.064 89.6729 39.718 90.1169 40.174C90.5609 40.618 91.1849 40.84 91.9889 40.84C92.8049 40.84 93.4349 40.618 93.8789 40.174C94.3229 39.718 94.5449 39.064 94.5449 38.212V30.436H97.0829V38.194C97.0829 39.262 96.8489 40.168 96.3809 40.912C95.9249 41.644 95.3069 42.196 94.5269 42.568C93.7589 42.94 92.9009 43.126 91.9529 43.126C91.0169 43.126 90.1649 42.94 89.3969 42.568C88.6409 42.196 88.0409 41.644 87.5969 40.912C87.1529 40.168 86.9309 39.262 86.9309 38.194V30.436H89.4509ZM102.218 41.002H106.358V43H99.6977V30.436H102.218V41.002ZM110.659 41.002H114.799V43H108.139V30.436H110.659V41.002ZM120.919 43.126C120.043 43.126 119.251 42.976 118.543 42.676C117.847 42.376 117.295 41.944 116.887 41.38C116.479 40.816 116.269 40.15 116.257 39.382H118.957C118.993 39.898 119.173 40.306 119.497 40.606C119.833 40.906 120.289 41.056 120.865 41.056C121.453 41.056 121.915 40.918 122.251 40.642C122.587 40.354 122.755 39.982 122.755 39.526C122.755 39.154 122.641 38.848 122.413 38.608C122.185 38.368 121.897 38.182 121.549 38.05C121.213 37.906 120.745 37.75 120.145 37.582C119.329 37.342 118.663 37.108 118.147 36.88C117.643 36.64 117.205 36.286 116.833 35.818C116.473 35.338 116.293 34.702 116.293 33.91C116.293 33.166 116.479 32.518 116.851 31.966C117.223 31.414 117.745 30.994 118.417 30.706C119.089 30.406 119.857 30.256 120.721 30.256C122.017 30.256 123.067 30.574 123.871 31.21C124.687 31.834 125.137 32.71 125.221 33.838H122.449C122.425 33.406 122.239 33.052 121.891 32.776C121.555 32.488 121.105 32.344 120.541 32.344C120.049 32.344 119.653 32.47 119.353 32.722C119.065 32.974 118.921 33.34 118.921 33.82C118.921 34.156 119.029 34.438 119.245 34.666C119.473 34.882 119.749 35.062 120.073 35.206C120.409 35.338 120.877 35.494 121.477 35.674C122.293 35.914 122.959 36.154 123.475 36.394C123.991 36.634 124.435 36.994 124.807 37.474C125.179 37.954 125.365 38.584 125.365 39.364C125.365 40.036 125.191 40.66 124.843 41.236C124.495 41.812 123.985 42.274 123.313 42.622C122.641 42.958 121.843 43.126 120.919 43.126ZM136.28 30.436V32.47H132.932V43H130.412V32.47H127.064V30.436H136.28ZM144.779 43L142.007 38.104H140.819V43H138.299V30.436H143.015C143.987 30.436 144.815 30.61 145.499 30.958C146.183 31.294 146.693 31.756 147.029 32.344C147.377 32.92 147.551 33.568 147.551 34.288C147.551 35.116 147.311 35.866 146.831 36.538C146.351 37.198 145.637 37.654 144.689 37.906L147.695 43H144.779ZM140.819 36.214H142.925C143.609 36.214 144.119 36.052 144.455 35.728C144.791 35.392 144.959 34.93 144.959 34.342C144.959 33.766 144.791 33.322 144.455 33.01C144.119 32.686 143.609 32.524 142.925 32.524H140.819V36.214ZM155.842 43.126C154.666 43.126 153.586 42.85 152.602 42.298C151.618 41.746 150.838 40.984 150.262 40.012C149.686 39.028 149.398 37.918 149.398 36.682C149.398 35.458 149.686 34.36 150.262 33.388C150.838 32.404 151.618 31.636 152.602 31.084C153.586 30.532 154.666 30.256 155.842 30.256C157.03 30.256 158.11 30.532 159.082 31.084C160.066 31.636 160.84 32.404 161.404 33.388C161.98 34.36 162.268 35.458 162.268 36.682C162.268 37.918 161.98 39.028 161.404 40.012C160.84 40.984 160.066 41.746 159.082 42.298C158.098 42.85 157.018 43.126 155.842 43.126ZM155.842 40.876C156.598 40.876 157.264 40.708 157.84 40.372C158.416 40.024 158.866 39.532 159.19 38.896C159.514 38.26 159.676 37.522 159.676 36.682C159.676 35.842 159.514 35.11 159.19 34.486C158.866 33.85 158.416 33.364 157.84 33.028C157.264 32.692 156.598 32.524 155.842 32.524C155.086 32.524 154.414 32.692 153.826 33.028C153.25 33.364 152.8 33.85 152.476 34.486C152.152 35.11 151.99 35.842 151.99 36.682C151.99 37.522 152.152 38.26 152.476 38.896C152.8 39.532 153.25 40.024 153.826 40.372C154.414 40.708 155.086 40.876 155.842 40.876ZM174.313 30.436L170.065 38.626V43H167.545V38.626L163.279 30.436H166.123L168.823 36.178L171.505 30.436H174.313Z" fill="#14171F"/>
</svg>
